<?xml version="1.0" encoding="UTF-8" standalone="no"?><svg xmlns="http://www.w3.org/2000/svg" xmlns:xlink="http://www.w3.org/1999/xlink" contentScriptType="application/ecmascript" contentStyleType="text/css" height="527px" preserveAspectRatio="none" style="width:933px;height:527px;" version="1.1" viewBox="0 0 933 527" width="933px" zoomAndPan="magnify"><defs><filter height="300%" id="f11846picmkvt4" width="300%" x="-1" y="-1"><feGaussianBlur result="blurOut" stdDeviation="2.0"/><feColorMatrix in="blurOut" result="blurOut2" type="matrix" values="0 0 0 0 0 0 0 0 0 0 0 0 0 0 0 0 0 0 .4 0"/><feOffset dx="4.0" dy="4.0" in="blurOut2" result="blurOut3"/><feBlend in="SourceGraphic" in2="blurOut3" mode="normal"/></filter></defs><g><text fill="#000000" font-family="sans-serif" font-size="14" font-weight="bold" lengthAdjust="spacingAndGlyphs" textLength="208" x="360.75" y="23.5352">Generic Identity Registration</text><line style="stroke: #878787; stroke-width: 1.0; stroke-dasharray: 5.0,5.0;" x1="33" x2="33" y1="116.9766" y2="439.7715"/><line style="stroke: #878787; stroke-width: 1.0; stroke-dasharray: 5.0,5.0;" x1="149" x2="149" y1="116.9766" y2="439.7715"/><line style="stroke: #878787; stroke-width: 1.0; stroke-dasharray: 5.0,5.0;" x1="532" x2="532" y1="116.9766" y2="439.7715"/><line style="stroke: #878787; stroke-width: 1.0; stroke-dasharray: 5.0,5.0;" x1="825.5" x2="825.5" y1="116.9766" y2="439.7715"/><line style="stroke: #878787; stroke-width: 1.0; stroke-dasharray: 5.0,5.0;" x1="903.5" x2="903.5" y1="116.9766" y2="439.7715"/><text fill="#000000" font-family="sans-serif" font-size="14" lengthAdjust="spacingAndGlyphs" textLength="45" x="8" y="114.0234">Owner</text><ellipse cx="33.5" cy="43.4883" fill="#FFFFFF" filter="url(#f11846picmkvt4)" rx="8" ry="8" style="stroke: #6959DB; stroke-width: 2.0;"/><path d="M33.5,51.4883 L33.5,78.4883 M20.5,59.4883 L46.5,59.4883 M33.5,78.4883 L20.5,93.4883 M33.5,78.4883 L46.5,93.4883 " fill="#FFFFFF" filter="url(#f11846picmkvt4)" style="stroke: #6959DB; stroke-width: 2.0;"/><text fill="#000000" font-family="sans-serif" font-size="14" lengthAdjust="spacingAndGlyphs" textLength="45" x="8" y="452.3066">Owner</text><ellipse cx="33.5" cy="465.2598" fill="#FFFFFF" filter="url(#f11846picmkvt4)" rx="8" ry="8" style="stroke: #6959DB; stroke-width: 2.0;"/><path d="M33.5,473.2598 L33.5,500.2598 M20.5,481.2598 L46.5,481.2598 M33.5,500.2598 L20.5,515.2598 M33.5,500.2598 L46.5,515.2598 " fill="#FFFFFF" filter="url(#f11846picmkvt4)" style="stroke: #6959DB; stroke-width: 2.0;"/><rect fill="#FFFFFF" filter="url(#f11846picmkvt4)" height="30.4883" rx="5" ry="5" style="stroke: #6959DB; stroke-width: 1.5;" width="81" x="107" y="81.4883"/><text fill="#000000" font-family="sans-serif" font-size="14" lengthAdjust="spacingAndGlyphs" textLength="67" x="114" y="102.0234">UportApp</text><rect fill="#FFFFFF" filter="url(#f11846picmkvt4)" height="30.4883" rx="5" ry="5" style="stroke: #6959DB; stroke-width: 1.5;" width="81" x="107" y="438.7715"/><text fill="#000000" font-family="sans-serif" font-size="14" lengthAdjust="spacingAndGlyphs" textLength="67" x="114" y="459.3066">UportApp</text><rect fill="#FFFFFF" filter="url(#f11846picmkvt4)" height="30.4883" rx="5" ry="5" style="stroke: #6959DB; stroke-width: 1.5;" width="125" x="468" y="81.4883"/><text fill="#000000" font-family="sans-serif" font-size="14" lengthAdjust="spacingAndGlyphs" textLength="111" x="475" y="102.0234">IdentityManager</text><rect fill="#FFFFFF" filter="url(#f11846picmkvt4)" height="30.4883" rx="5" ry="5" style="stroke: #6959DB; stroke-width: 1.5;" width="125" x="468" y="438.7715"/><text fill="#000000" font-family="sans-serif" font-size="14" lengthAdjust="spacingAndGlyphs" textLength="111" x="475" y="459.3066">IdentityManager</text><text fill="#000000" font-family="sans-serif" font-size="14" lengthAdjust="spacingAndGlyphs" textLength="94" x="775.5" y="114.0234">UportRegistry</text><path d="M807.5,64.4883 C807.5,54.4883 825.5,54.4883 825.5,54.4883 C825.5,54.4883 843.5,54.4883 843.5,64.4883 L843.5,90.4883 C843.5,100.4883 825.5,100.4883 825.5,100.4883 C825.5,100.4883 807.5,100.4883 807.5,90.4883 L807.5,64.4883 " fill="#FEFECE" filter="url(#f11846picmkvt4)" style="stroke: #000000; stroke-width: 1.5;"/><path d="M807.5,64.4883 C807.5,74.4883 825.5,74.4883 825.5,74.4883 C825.5,74.4883 843.5,74.4883 843.5,64.4883 " fill="none" style="stroke: #000000; stroke-width: 1.5;"/><text fill="#000000" font-family="sans-serif" font-size="14" lengthAdjust="spacingAndGlyphs" textLength="94" x="775.5" y="452.3066">UportRegistry</text><path d="M807.5,465.2598 C807.5,455.2598 825.5,455.2598 825.5,455.2598 C825.5,455.2598 843.5,455.2598 843.5,465.2598 L843.5,491.2598 C843.5,501.2598 825.5,501.2598 825.5,501.2598 C825.5,501.2598 807.5,501.2598 807.5,491.2598 L807.5,465.2598 " fill="#FEFECE" filter="url(#f11846picmkvt4)" style="stroke: #000000; stroke-width: 1.5;"/><path d="M807.5,465.2598 C807.5,475.2598 825.5,475.2598 825.5,475.2598 C825.5,475.2598 843.5,475.2598 843.5,465.2598 " fill="none" style="stroke: #000000; stroke-width: 1.5;"/><text fill="#000000" font-family="sans-serif" font-size="14" lengthAdjust="spacingAndGlyphs" textLength="28" x="886.5" y="114.0234">IPFS</text><path d="M885.5,64.4883 C885.5,54.4883 903.5,54.4883 903.5,54.4883 C903.5,54.4883 921.5,54.4883 921.5,64.4883 L921.5,90.4883 C921.5,100.4883 903.5,100.4883 903.5,100.4883 C903.5,100.4883 885.5,100.4883 885.5,90.4883 L885.5,64.4883 " fill="#FEFECE" filter="url(#f11846picmkvt4)" style="stroke: #000000; stroke-width: 1.5;"/><path d="M885.5,64.4883 C885.5,74.4883 903.5,74.4883 903.5,74.4883 C903.5,74.4883 921.5,74.4883 921.5,64.4883 " fill="none" style="stroke: #000000; stroke-width: 1.5;"/><text fill="#000000" font-family="sans-serif" font-size="14" lengthAdjust="spacingAndGlyphs" textLength="28" x="886.5" y="452.3066">IPFS</text><path d="M885.5,465.2598 C885.5,455.2598 903.5,455.2598 903.5,455.2598 C903.5,455.2598 921.5,455.2598 921.5,465.2598 L921.5,491.2598 C921.5,501.2598 903.5,501.2598 903.5,501.2598 C903.5,501.2598 885.5,501.2598 885.5,491.2598 L885.5,465.2598 " fill="#FEFECE" filter="url(#f11846picmkvt4)" style="stroke: #000000; stroke-width: 1.5;"/><path d="M885.5,465.2598 C885.5,475.2598 903.5,475.2598 903.5,475.2598 C903.5,475.2598 921.5,475.2598 921.5,465.2598 " fill="none" style="stroke: #000000; stroke-width: 1.5;"/><polygon fill="#6959DB" points="137.5,143.9766,147.5,147.9766,137.5,151.9766,141.5,147.9766" style="stroke: #6959DB; stroke-width: 1.0;"/><line style="stroke: #6959DB; stroke-width: 1.0;" x1="33.5" x2="143.5" y1="147.9766" y2="147.9766"/><text fill="#000000" font-family="sans-serif" font-size="13" lengthAdjust="spacingAndGlyphs" textLength="92" x="40.5" y="143.5449">Create Identity</text><line style="stroke: #6959DB; stroke-width: 1.0;" x1="149.5" x2="191.5" y1="177.5977" y2="177.5977"/><line style="stroke: #6959DB; stroke-width: 1.0;" x1="191.5" x2="191.5" y1="177.5977" y2="190.5977"/><line style="stroke: #6959DB; stroke-width: 1.0;" x1="150.5" x2="191.5" y1="190.5977" y2="190.5977"/><polygon fill="#6959DB" points="160.5,186.5977,150.5,190.5977,160.5,194.5977,156.5,190.5977" style="stroke: #6959DB; stroke-width: 1.0;"/><text fill="#000000" font-family="sans-serif" font-size="13" lengthAdjust="spacingAndGlyphs" textLength="104" x="156.5" y="172.8555">Generate Key Pair</text><line style="stroke: #6959DB; stroke-width: 1.0;" x1="149.5" x2="191.5" y1="219.9082" y2="219.9082"/><line style="stroke: #6959DB; stroke-width: 1.0;" x1="191.5" x2="191.5" y1="219.9082" y2="232.9082"/><line style="stroke: #6959DB; stroke-width: 1.0;" x1="150.5" x2="191.5" y1="232.9082" y2="232.9082"/><polygon fill="#6959DB" points="160.5,228.9082,150.5,232.9082,160.5,236.9082,156.5,232.9082" style="stroke: #6959DB; stroke-width: 1.0;"/><text fill="#000000" font-family="sans-serif" font-size="13" lengthAdjust="spacingAndGlyphs" textLength="161" x="156.5" y="215.166">Store private key securely</text><line style="stroke: #6959DB; stroke-width: 1.0;" x1="149.5" x2="191.5" y1="262.2188" y2="262.2188"/><line style="stroke: #6959DB; stroke-width: 1.0;" x1="191.5" x2="191.5" y1="262.2188" y2="275.2188"/><line style="stroke: #6959DB; stroke-width: 1.0;" x1="150.5" x2="191.5" y1="275.2188" y2="275.2188"/><polygon fill="#6959DB" points="160.5,271.2188,150.5,275.2188,160.5,279.2188,156.5,275.2188" style="stroke: #6959DB; stroke-width: 1.0;"/><text fill="#000000" font-family="sans-serif" font-size="13" lengthAdjust="spacingAndGlyphs" textLength="110" x="156.5" y="257.4766">Generate Address</text><polygon fill="#6959DB" points="520.5,300.2188,530.5,304.2188,520.5,308.2188,524.5,304.2188" style="stroke: #6959DB; stroke-width: 1.0;"/><line style="stroke: #6959DB; stroke-width: 1.0;" x1="149.5" x2="526.5" y1="304.2188" y2="304.2188"/><text fill="#000000" font-family="sans-serif" font-size="13" lengthAdjust="spacingAndGlyphs" textLength="284" x="156.5" y="299.7871">Generate Identity SmartContract on Ethereum</text><polygon fill="#6959DB" points="891.5,329.5293,901.5,333.5293,891.5,337.5293,895.5,333.5293" style="stroke: #6959DB; stroke-width: 1.0;"/><line style="stroke: #6959DB; stroke-width: 1.0;" x1="149.5" x2="897.5" y1="333.5293" y2="333.5293"/><text fill="#000000" font-family="sans-serif" font-size="13" lengthAdjust="spacingAndGlyphs" textLength="311" x="156.5" y="329.0977">Generate Identity Document containing PublicKey</text><polygon fill="#6959DB" points="160.5,358.8398,150.5,362.8398,160.5,366.8398,156.5,362.8398" style="stroke: #6959DB; stroke-width: 1.0;"/><line style="stroke: #6959DB; stroke-width: 1.0;" x1="154.5" x2="902.5" y1="362.8398" y2="362.8398"/><text fill="#000000" font-family="sans-serif" font-size="13" lengthAdjust="spacingAndGlyphs" textLength="242" x="166.5" y="358.4082">Return IPFS hash of Identity Document</text><polygon fill="#6959DB" points="520.5,388.1504,530.5,392.1504,520.5,396.1504,524.5,392.1504" style="stroke: #6959DB; stroke-width: 1.0;"/><line style="stroke: #6959DB; stroke-width: 1.0;" x1="149.5" x2="526.5" y1="392.1504" y2="392.1504"/><text fill="#000000" font-family="sans-serif" font-size="13" lengthAdjust="spacingAndGlyphs" textLength="359" x="156.5" y="387.7188">Request IdentityManager forward registration transaction</text><polygon fill="#6959DB" points="813.5,417.4609,823.5,421.4609,813.5,425.4609,817.5,421.4609" style="stroke: #6959DB; stroke-width: 1.0;"/><line style="stroke: #6959DB; stroke-width: 1.0;" x1="532.5" x2="819.5" y1="421.4609" y2="421.4609"/><text fill="#000000" font-family="sans-serif" font-size="13" lengthAdjust="spacingAndGlyphs" textLength="269" x="539.5" y="417.0293">Ethereum transaction registering IPFS hash</text><!--
@startuml
skinparam roundcorner 10
skinparam BoxPadding 10
skinparam headerFontColor #6959DB
skinparam headerFontSize 18
skinparam sequence {
  ArrowColor #6959DB
  GroupBackgroundColor #6959DB
  GroupBorderColor #EDECFF
  GroupHeaderFontColor #ffffff
  BoxBorderColor #6959DB
  BoxBackgroundColor #EDECFF
  BoxPadding 10

  ParticipantBorderColor #6959DB
  ParticipantBackgroundColor #ffffff
  ParticipantPadding 10

  ActorBorderColor #6959DB
  ActorBackgroundColor #ffffff
  EntityBorderColor #6959DB
  EntityBackgroundColor #ffffff
  DatabaseBorderColor #6959DB
  DatabaseBackgroundColor #ffffff

  LifeLineBorderColor #878787
}

title Generic Identity Registration
actor Owner
participant UportApp
participant IdentityManager
database UportRegistry
database IPFS

Owner -> UportApp : Create Identity
UportApp -> UportApp: Generate Key Pair
UportApp -> UportApp: Store private key securely
UportApp -> UportApp: Generate Address
UportApp -> IdentityManager: Generate Identity SmartContract on Ethereum
UportApp -> IPFS: Generate Identity Document containing PublicKey
IPFS -> UportApp: Return IPFS hash of Identity Document
UportApp -> IdentityManager: Request IdentityManager forward registration transaction
IdentityManager -> UportRegistry: Ethereum transaction registering IPFS hash
@enduml

PlantUML version 1.2017.19(Sun Nov 12 05:46:22 CST 2017)
(GPL source distribution)
Java Runtime: Java(TM) SE Runtime Environment
JVM: Java HotSpot(TM) 64-Bit Server VM
Java Version: 1.8.0_144-b01
Operating System: Mac OS X
OS Version: 10.13.1
Default Encoding: UTF-8
Language: en
Country: US
--></g></svg>