<?xml version="1.0" encoding="UTF-8" standalone="no"?><svg xmlns="http://www.w3.org/2000/svg" xmlns:xlink="http://www.w3.org/1999/xlink" contentScriptType="application/ecmascript" contentStyleType="text/css" height="468px" preserveAspectRatio="none" style="width:550px;height:468px;" version="1.1" viewBox="0 0 550 468" width="550px" zoomAndPan="magnify"><defs><filter height="300%" id="f7waequpfspds" width="300%" x="-1" y="-1"><feGaussianBlur result="blurOut" stdDeviation="2.0"/><feColorMatrix in="blurOut" result="blurOut2" type="matrix" values="0 0 0 0 0 0 0 0 0 0 0 0 0 0 0 0 0 0 .4 0"/><feOffset dx="4.0" dy="4.0" in="blurOut2" result="blurOut3"/><feBlend in="SourceGraphic" in2="blurOut3" mode="normal"/></filter></defs><g><text fill="#000000" font-family="sans-serif" font-size="14" font-weight="bold" lengthAdjust="spacingAndGlyphs" textLength="208" x="169.25" y="23.5352">Generic Identity Registration</text><line style="stroke: #878787; stroke-width: 1.0; stroke-dasharray: 5.0,5.0;" x1="33" x2="33" y1="116.9766" y2="381.1504"/><line style="stroke: #878787; stroke-width: 1.0; stroke-dasharray: 5.0,5.0;" x1="149.5" x2="149.5" y1="116.9766" y2="381.1504"/><line style="stroke: #878787; stroke-width: 1.0; stroke-dasharray: 5.0,5.0;" x1="442.5" x2="442.5" y1="116.9766" y2="381.1504"/><line style="stroke: #878787; stroke-width: 1.0; stroke-dasharray: 5.0,5.0;" x1="520.5" x2="520.5" y1="116.9766" y2="381.1504"/><text fill="#000000" font-family="sans-serif" font-size="14" lengthAdjust="spacingAndGlyphs" textLength="45" x="8" y="114.0234">Owner</text><ellipse cx="33.5" cy="43.4883" fill="#FFFFFF" filter="url(#f7waequpfspds)" rx="8" ry="8" style="stroke: #6959DB; stroke-width: 2.0;"/><path d="M33.5,51.4883 L33.5,78.4883 M20.5,59.4883 L46.5,59.4883 M33.5,78.4883 L20.5,93.4883 M33.5,78.4883 L46.5,93.4883 " fill="#FFFFFF" filter="url(#f7waequpfspds)" style="stroke: #6959DB; stroke-width: 2.0;"/><text fill="#000000" font-family="sans-serif" font-size="14" lengthAdjust="spacingAndGlyphs" textLength="45" x="8" y="393.6855">Owner</text><ellipse cx="33.5" cy="406.6387" fill="#FFFFFF" filter="url(#f7waequpfspds)" rx="8" ry="8" style="stroke: #6959DB; stroke-width: 2.0;"/><path d="M33.5,414.6387 L33.5,441.6387 M20.5,422.6387 L46.5,422.6387 M33.5,441.6387 L20.5,456.6387 M33.5,441.6387 L46.5,456.6387 " fill="#FFFFFF" filter="url(#f7waequpfspds)" style="stroke: #6959DB; stroke-width: 2.0;"/><rect fill="#FFFFFF" filter="url(#f7waequpfspds)" height="30.4883" rx="5" ry="5" style="stroke: #6959DB; stroke-width: 1.5;" width="106" x="94.5" y="81.4883"/><text fill="#000000" font-family="sans-serif" font-size="14" lengthAdjust="spacingAndGlyphs" textLength="92" x="101.5" y="102.0234">IdentityWallet</text><rect fill="#FFFFFF" filter="url(#f7waequpfspds)" height="30.4883" rx="5" ry="5" style="stroke: #6959DB; stroke-width: 1.5;" width="106" x="94.5" y="380.1504"/><text fill="#000000" font-family="sans-serif" font-size="14" lengthAdjust="spacingAndGlyphs" textLength="92" x="101.5" y="400.6855">IdentityWallet</text><text fill="#000000" font-family="sans-serif" font-size="14" lengthAdjust="spacingAndGlyphs" textLength="94" x="392.5" y="114.0234">UportRegistry</text><path d="M424.5,64.4883 C424.5,54.4883 442.5,54.4883 442.5,54.4883 C442.5,54.4883 460.5,54.4883 460.5,64.4883 L460.5,90.4883 C460.5,100.4883 442.5,100.4883 442.5,100.4883 C442.5,100.4883 424.5,100.4883 424.5,90.4883 L424.5,64.4883 " fill="#FEFECE" filter="url(#f7waequpfspds)" style="stroke: #000000; stroke-width: 1.5;"/><path d="M424.5,64.4883 C424.5,74.4883 442.5,74.4883 442.5,74.4883 C442.5,74.4883 460.5,74.4883 460.5,64.4883 " fill="none" style="stroke: #000000; stroke-width: 1.5;"/><text fill="#000000" font-family="sans-serif" font-size="14" lengthAdjust="spacingAndGlyphs" textLength="94" x="392.5" y="393.6855">UportRegistry</text><path d="M424.5,406.6387 C424.5,396.6387 442.5,396.6387 442.5,396.6387 C442.5,396.6387 460.5,396.6387 460.5,406.6387 L460.5,432.6387 C460.5,442.6387 442.5,442.6387 442.5,442.6387 C442.5,442.6387 424.5,442.6387 424.5,432.6387 L424.5,406.6387 " fill="#FEFECE" filter="url(#f7waequpfspds)" style="stroke: #000000; stroke-width: 1.5;"/><path d="M424.5,406.6387 C424.5,416.6387 442.5,416.6387 442.5,416.6387 C442.5,416.6387 460.5,416.6387 460.5,406.6387 " fill="none" style="stroke: #000000; stroke-width: 1.5;"/><text fill="#000000" font-family="sans-serif" font-size="14" lengthAdjust="spacingAndGlyphs" textLength="28" x="503.5" y="114.0234">IPFS</text><path d="M502.5,64.4883 C502.5,54.4883 520.5,54.4883 520.5,54.4883 C520.5,54.4883 538.5,54.4883 538.5,64.4883 L538.5,90.4883 C538.5,100.4883 520.5,100.4883 520.5,100.4883 C520.5,100.4883 502.5,100.4883 502.5,90.4883 L502.5,64.4883 " fill="#FEFECE" filter="url(#f7waequpfspds)" style="stroke: #000000; stroke-width: 1.5;"/><path d="M502.5,64.4883 C502.5,74.4883 520.5,74.4883 520.5,74.4883 C520.5,74.4883 538.5,74.4883 538.5,64.4883 " fill="none" style="stroke: #000000; stroke-width: 1.5;"/><text fill="#000000" font-family="sans-serif" font-size="14" lengthAdjust="spacingAndGlyphs" textLength="28" x="503.5" y="393.6855">IPFS</text><path d="M502.5,406.6387 C502.5,396.6387 520.5,396.6387 520.5,396.6387 C520.5,396.6387 538.5,396.6387 538.5,406.6387 L538.5,432.6387 C538.5,442.6387 520.5,442.6387 520.5,442.6387 C520.5,442.6387 502.5,442.6387 502.5,432.6387 L502.5,406.6387 " fill="#FEFECE" filter="url(#f7waequpfspds)" style="stroke: #000000; stroke-width: 1.5;"/><path d="M502.5,406.6387 C502.5,416.6387 520.5,416.6387 520.5,416.6387 C520.5,416.6387 538.5,416.6387 538.5,406.6387 " fill="none" style="stroke: #000000; stroke-width: 1.5;"/><polygon fill="#6959DB" points="137.5,143.9766,147.5,147.9766,137.5,151.9766,141.5,147.9766" style="stroke: #6959DB; stroke-width: 1.0;"/><line style="stroke: #6959DB; stroke-width: 1.0;" x1="33.5" x2="143.5" y1="147.9766" y2="147.9766"/><text fill="#000000" font-family="sans-serif" font-size="13" lengthAdjust="spacingAndGlyphs" textLength="92" x="40.5" y="143.5449">Create Identity</text><line style="stroke: #6959DB; stroke-width: 1.0;" x1="149.5" x2="191.5" y1="177.5977" y2="177.5977"/><line style="stroke: #6959DB; stroke-width: 1.0;" x1="191.5" x2="191.5" y1="177.5977" y2="190.5977"/><line style="stroke: #6959DB; stroke-width: 1.0;" x1="150.5" x2="191.5" y1="190.5977" y2="190.5977"/><polygon fill="#6959DB" points="160.5,186.5977,150.5,190.5977,160.5,194.5977,156.5,190.5977" style="stroke: #6959DB; stroke-width: 1.0;"/><text fill="#000000" font-family="sans-serif" font-size="13" lengthAdjust="spacingAndGlyphs" textLength="104" x="156.5" y="172.8555">Generate Key Pair</text><line style="stroke: #6959DB; stroke-width: 1.0;" x1="149.5" x2="191.5" y1="219.9082" y2="219.9082"/><line style="stroke: #6959DB; stroke-width: 1.0;" x1="191.5" x2="191.5" y1="219.9082" y2="232.9082"/><line style="stroke: #6959DB; stroke-width: 1.0;" x1="150.5" x2="191.5" y1="232.9082" y2="232.9082"/><polygon fill="#6959DB" points="160.5,228.9082,150.5,232.9082,160.5,236.9082,156.5,232.9082" style="stroke: #6959DB; stroke-width: 1.0;"/><text fill="#000000" font-family="sans-serif" font-size="13" lengthAdjust="spacingAndGlyphs" textLength="161" x="156.5" y="215.166">Store private key securely</text><line style="stroke: #6959DB; stroke-width: 1.0;" x1="149.5" x2="191.5" y1="262.2188" y2="262.2188"/><line style="stroke: #6959DB; stroke-width: 1.0;" x1="191.5" x2="191.5" y1="262.2188" y2="275.2188"/><line style="stroke: #6959DB; stroke-width: 1.0;" x1="150.5" x2="191.5" y1="275.2188" y2="275.2188"/><polygon fill="#6959DB" points="160.5,271.2188,150.5,275.2188,160.5,279.2188,156.5,275.2188" style="stroke: #6959DB; stroke-width: 1.0;"/><text fill="#000000" font-family="sans-serif" font-size="13" lengthAdjust="spacingAndGlyphs" textLength="110" x="156.5" y="257.4766">Generate Address</text><polygon fill="#6959DB" points="508.5,300.2188,518.5,304.2188,508.5,308.2188,512.5,304.2188" style="stroke: #6959DB; stroke-width: 1.0;"/><line style="stroke: #6959DB; stroke-width: 1.0;" x1="149.5" x2="514.5" y1="304.2188" y2="304.2188"/><text fill="#000000" font-family="sans-serif" font-size="13" lengthAdjust="spacingAndGlyphs" textLength="311" x="156.5" y="299.7871">Generate Identity Document containing PublicKey</text><polygon fill="#6959DB" points="160.5,329.5293,150.5,333.5293,160.5,337.5293,156.5,333.5293" style="stroke: #6959DB; stroke-width: 1.0;"/><line style="stroke: #6959DB; stroke-width: 1.0;" x1="154.5" x2="519.5" y1="333.5293" y2="333.5293"/><text fill="#000000" font-family="sans-serif" font-size="13" lengthAdjust="spacingAndGlyphs" textLength="242" x="166.5" y="329.0977">Return IPFS hash of Identity Document</text><polygon fill="#6959DB" points="430.5,358.8398,440.5,362.8398,430.5,366.8398,434.5,362.8398" style="stroke: #6959DB; stroke-width: 1.0;"/><line style="stroke: #6959DB; stroke-width: 1.0;" x1="149.5" x2="436.5" y1="362.8398" y2="362.8398"/><text fill="#000000" font-family="sans-serif" font-size="13" lengthAdjust="spacingAndGlyphs" textLength="269" x="156.5" y="358.4082">Ethereum transaction registering IPFS hash</text><!--
@startuml
skinparam roundcorner 10
skinparam BoxPadding 10
skinparam headerFontColor #6959DB
skinparam headerFontSize 18
skinparam sequence {
  ArrowColor #6959DB
  GroupBackgroundColor #6959DB
  GroupBorderColor #EDECFF
  GroupHeaderFontColor #ffffff
  BoxBorderColor #6959DB
  BoxBackgroundColor #EDECFF
  BoxPadding 10

  ParticipantBorderColor #6959DB
  ParticipantBackgroundColor #ffffff
  ParticipantPadding 10

  ActorBorderColor #6959DB
  ActorBackgroundColor #ffffff
  EntityBorderColor #6959DB
  EntityBackgroundColor #ffffff
  DatabaseBorderColor #6959DB
  DatabaseBackgroundColor #ffffff

  LifeLineBorderColor #878787
}

title Generic Identity Registration
actor Owner
participant IdentityWallet
database UportRegistry
database IPFS

Owner -> IdentityWallet : Create Identity
IdentityWallet -> IdentityWallet: Generate Key Pair
IdentityWallet -> IdentityWallet: Store private key securely
IdentityWallet -> IdentityWallet: Generate Address
IdentityWallet -> IPFS: Generate Identity Document containing PublicKey
IPFS -> IdentityWallet: Return IPFS hash of Identity Document
IdentityWallet -> UportRegistry: Ethereum transaction registering IPFS hash

@enduml

PlantUML version 1.2017.19(Sun Nov 12 05:46:22 CST 2017)
(GPL source distribution)
Java Runtime: Java(TM) SE Runtime Environment
JVM: Java HotSpot(TM) 64-Bit Server VM
Java Version: 1.8.0_144-b01
Operating System: Mac OS X
OS Version: 10.13.1
Default Encoding: UTF-8
Language: en
Country: US
--></g></svg>