<?xml version="1.0" encoding="UTF-8" standalone="no"?><svg xmlns="http://www.w3.org/2000/svg" xmlns:xlink="http://www.w3.org/1999/xlink" contentScriptType="application/ecmascript" contentStyleType="text/css" height="501px" preserveAspectRatio="none" style="width:528px;height:501px;" version="1.1" viewBox="0 0 528 501" width="528px" zoomAndPan="magnify"><defs><filter height="300%" id="f11cv51w1pz57u" width="300%" x="-1" y="-1"><feGaussianBlur result="blurOut" stdDeviation="2.0"/><feColorMatrix in="blurOut" result="blurOut2" type="matrix" values="0 0 0 0 0 0 0 0 0 0 0 0 0 0 0 0 0 0 .4 0"/><feOffset dx="4.0" dy="4.0" in="blurOut2" result="blurOut3"/><feBlend in="SourceGraphic" in2="blurOut3" mode="normal"/></filter></defs><g><text fill="#000000" font-family="sans-serif" font-size="14" font-weight="bold" lengthAdjust="spacingAndGlyphs" textLength="249" x="140.5" y="23.5352">Example Identity Verification Flow</text><line style="stroke: #878787; stroke-width: 1.0; stroke-dasharray: 5.0,5.0;" x1="47" x2="47" y1="116.9766" y2="413.7715"/><line style="stroke: #878787; stroke-width: 1.0; stroke-dasharray: 5.0,5.0;" x1="261" x2="261" y1="116.9766" y2="413.7715"/><line style="stroke: #878787; stroke-width: 1.0; stroke-dasharray: 5.0,5.0;" x1="496" x2="496" y1="116.9766" y2="413.7715"/><rect fill="#FFFFFF" filter="url(#f11cv51w1pz57u)" height="30.4883" rx="5" ry="5" style="stroke: #6959DB; stroke-width: 1.5;" width="55" x="18" y="81.4883"/><text fill="#000000" font-family="sans-serif" font-size="14" lengthAdjust="spacingAndGlyphs" textLength="41" x="25" y="102.0234">Issuer</text><rect fill="#FFFFFF" filter="url(#f11cv51w1pz57u)" height="30.4883" rx="5" ry="5" style="stroke: #6959DB; stroke-width: 1.5;" width="55" x="18" y="412.7715"/><text fill="#000000" font-family="sans-serif" font-size="14" lengthAdjust="spacingAndGlyphs" textLength="41" x="25" y="433.3066">Issuer</text><rect fill="#FFFFFF" filter="url(#f11cv51w1pz57u)" height="30.4883" rx="5" ry="5" style="stroke: #6959DB; stroke-width: 1.5;" width="99" x="210" y="81.4883"/><text fill="#000000" font-family="sans-serif" font-size="14" lengthAdjust="spacingAndGlyphs" textLength="85" x="217" y="102.0234">UportMobile</text><rect fill="#FFFFFF" filter="url(#f11cv51w1pz57u)" height="30.4883" rx="5" ry="5" style="stroke: #6959DB; stroke-width: 1.5;" width="99" x="210" y="412.7715"/><text fill="#000000" font-family="sans-serif" font-size="14" lengthAdjust="spacingAndGlyphs" textLength="85" x="217" y="433.3066">UportMobile</text><text fill="#000000" font-family="sans-serif" font-size="14" lengthAdjust="spacingAndGlyphs" textLength="45" x="471" y="114.0234">Owner</text><ellipse cx="496.5" cy="43.4883" fill="#FFFFFF" filter="url(#f11cv51w1pz57u)" rx="8" ry="8" style="stroke: #6959DB; stroke-width: 2.0;"/><path d="M496.5,51.4883 L496.5,78.4883 M483.5,59.4883 L509.5,59.4883 M496.5,78.4883 L483.5,93.4883 M496.5,78.4883 L509.5,93.4883 " fill="#FFFFFF" filter="url(#f11cv51w1pz57u)" style="stroke: #6959DB; stroke-width: 2.0;"/><text fill="#000000" font-family="sans-serif" font-size="14" lengthAdjust="spacingAndGlyphs" textLength="45" x="471" y="426.3066">Owner</text><ellipse cx="496.5" cy="439.2598" fill="#FFFFFF" filter="url(#f11cv51w1pz57u)" rx="8" ry="8" style="stroke: #6959DB; stroke-width: 2.0;"/><path d="M496.5,447.2598 L496.5,474.2598 M483.5,455.2598 L509.5,455.2598 M496.5,474.2598 L483.5,489.2598 M496.5,474.2598 L509.5,489.2598 " fill="#FFFFFF" filter="url(#f11cv51w1pz57u)" style="stroke: #6959DB; stroke-width: 2.0;"/><polygon fill="#6959DB" points="249.5,143.9766,259.5,147.9766,249.5,151.9766,253.5,147.9766" style="stroke: #6959DB; stroke-width: 1.0;"/><line style="stroke: #6959DB; stroke-width: 1.0;" x1="47.5" x2="255.5" y1="147.9766" y2="147.9766"/><text fill="#000000" font-family="sans-serif" font-size="13" lengthAdjust="spacingAndGlyphs" textLength="180" x="54.5" y="143.5449">Selective Disclosure Request</text><polygon fill="#6959DB" points="484.5,173.2871,494.5,177.2871,484.5,181.2871,488.5,177.2871" style="stroke: #6959DB; stroke-width: 1.0;"/><line style="stroke: #6959DB; stroke-width: 1.0;" x1="261.5" x2="490.5" y1="177.2871" y2="177.2871"/><text fill="#000000" font-family="sans-serif" font-size="13" lengthAdjust="spacingAndGlyphs" textLength="120" x="268.5" y="172.8555">Authorize Request?</text><polygon fill="#6959DB" points="272.5,202.5977,262.5,206.5977,272.5,210.5977,268.5,206.5977" style="stroke: #6959DB; stroke-width: 1.0;"/><line style="stroke: #6959DB; stroke-width: 1.0;" x1="266.5" x2="495.5" y1="206.5977" y2="206.5977"/><text fill="#000000" font-family="sans-serif" font-size="13" lengthAdjust="spacingAndGlyphs" textLength="96" x="278.5" y="202.166">Allow/Disallow</text><line style="stroke: #6959DB; stroke-width: 1.0;" x1="261.5" x2="303.5" y1="236.2188" y2="236.2188"/><line style="stroke: #6959DB; stroke-width: 1.0;" x1="303.5" x2="303.5" y1="236.2188" y2="249.2188"/><line style="stroke: #6959DB; stroke-width: 1.0;" x1="262.5" x2="303.5" y1="249.2188" y2="249.2188"/><polygon fill="#6959DB" points="272.5,245.2188,262.5,249.2188,272.5,253.2188,268.5,249.2188" style="stroke: #6959DB; stroke-width: 1.0;"/><text fill="#000000" font-family="sans-serif" font-size="13" lengthAdjust="spacingAndGlyphs" textLength="221" x="268.5" y="231.4766">Sign Selective Disclosure Response</text><polygon fill="#6959DB" points="58.5,274.2188,48.5,278.2188,58.5,282.2188,54.5,278.2188" style="stroke: #6959DB; stroke-width: 1.0;"/><line style="stroke: #6959DB; stroke-width: 1.0;" x1="52.5" x2="260.5" y1="278.2188" y2="278.2188"/><text fill="#000000" font-family="sans-serif" font-size="13" lengthAdjust="spacingAndGlyphs" textLength="190" x="64.5" y="273.7871">Selective Disclosure Response</text><polygon fill="#6959DB" points="58.5,303.5293,48.5,307.5293,58.5,311.5293,54.5,307.5293" style="stroke: #6959DB; stroke-width: 1.0;"/><line style="stroke: #6959DB; stroke-width: 1.0;" x1="52.5" x2="495.5" y1="307.5293" y2="307.5293"/><text fill="#000000" font-family="sans-serif" font-size="13" lengthAdjust="spacingAndGlyphs" textLength="92" x="64.5" y="303.0977">Show passport</text><polygon fill="#6959DB" points="249.5,332.8398,259.5,336.8398,249.5,340.8398,253.5,336.8398" style="stroke: #6959DB; stroke-width: 1.0;"/><line style="stroke: #6959DB; stroke-width: 1.0;" x1="47.5" x2="255.5" y1="336.8398" y2="336.8398"/><text fill="#000000" font-family="sans-serif" font-size="13" lengthAdjust="spacingAndGlyphs" textLength="72" x="54.5" y="332.4082">Verification</text><polygon fill="#6959DB" points="484.5,362.1504,494.5,366.1504,484.5,370.1504,488.5,366.1504" style="stroke: #6959DB; stroke-width: 1.0;"/><line style="stroke: #6959DB; stroke-width: 1.0;" x1="261.5" x2="490.5" y1="366.1504" y2="366.1504"/><text fill="#000000" font-family="sans-serif" font-size="13" lengthAdjust="spacingAndGlyphs" textLength="109" x="268.5" y="361.7188">Show Verification</text><polygon fill="#6959DB" points="58.5,391.4609,48.5,395.4609,58.5,399.4609,54.5,395.4609" style="stroke: #6959DB; stroke-width: 1.0;"/><line style="stroke: #6959DB; stroke-width: 1.0;" x1="52.5" x2="260.5" y1="395.4609" y2="395.4609"/><text fill="#000000" font-family="sans-serif" font-size="13" lengthAdjust="spacingAndGlyphs" textLength="116" x="64.5" y="391.0293">Acknowledgement</text><!--
@startuml
skinparam roundcorner 10
skinparam BoxPadding 10
skinparam headerFontColor #6959DB
skinparam headerFontSize 18
skinparam sequence {
  ArrowColor #6959DB
  GroupBackgroundColor #6959DB
  GroupBorderColor #EDECFF
  GroupHeaderFontColor #ffffff
  BoxBorderColor #6959DB
  BoxBackgroundColor #EDECFF
  BoxPadding 10

  ParticipantBorderColor #6959DB
  ParticipantBackgroundColor #ffffff
  ParticipantPadding 10

  ActorBorderColor #6959DB
  ActorBackgroundColor #ffffff
  EntityBorderColor #6959DB
  EntityBackgroundColor #ffffff
  DatabaseBorderColor #6959DB
  DatabaseBackgroundColor #ffffff

  LifeLineBorderColor #878787
}

title Example Identity Verification Flow
participant Issuer
participant UportMobile
actor Owner

Issuer -> UportMobile : Selective Disclosure Request
UportMobile -> Owner : Authorize Request?
Owner -> UportMobile: Allow/Disallow
UportMobile -> UportMobile: Sign Selective Disclosure Response
UportMobile -> Issuer: Selective Disclosure Response
Issuer <- Owner : Show passport
Issuer -> UportMobile : Verification
UportMobile -> Owner : Show Verification
UportMobile -> Issuer : Acknowledgement

@enduml

PlantUML version 1.2017.19(Sun Nov 12 05:46:22 CST 2017)
(GPL source distribution)
Java Runtime: Java(TM) SE Runtime Environment
JVM: Java HotSpot(TM) 64-Bit Server VM
Java Version: 1.8.0_144-b01
Operating System: Mac OS X
OS Version: 10.13.1
Default Encoding: UTF-8
Language: en
Country: US
--></g></svg>