<?xml version="1.0" encoding="UTF-8" standalone="no"?><svg xmlns="http://www.w3.org/2000/svg" xmlns:xlink="http://www.w3.org/1999/xlink" contentScriptType="application/ecmascript" contentStyleType="text/css" height="983px" preserveAspectRatio="none" style="width:1137px;height:983px;" version="1.1" viewBox="0 0 1137 983" width="1137px" zoomAndPan="magnify"><defs><filter height="300%" id="f5ppn2agyoj5l" width="300%" x="-1" y="-1"><feGaussianBlur result="blurOut" stdDeviation="2.0"/><feColorMatrix in="blurOut" result="blurOut2" type="matrix" values="0 0 0 0 0 0 0 0 0 0 0 0 0 0 0 0 0 0 .4 0"/><feOffset dx="4.0" dy="4.0" in="blurOut2" result="blurOut3"/><feBlend in="SourceGraphic" in2="blurOut3" mode="normal"/></filter></defs><g><text fill="#000000" font-family="sans-serif" font-size="14" font-weight="bold" lengthAdjust="spacingAndGlyphs" textLength="231" x="454.25" y="23.5352">Private Chain Provisioning Flow</text><rect fill="#FFFFFF" filter="url(#f5ppn2agyoj5l)" height="437.3477" style="stroke: #EDECFF; stroke-width: 2.0;" width="1113.5" x="13" y="133.9766"/><rect fill="#FFFFFF" filter="url(#f5ppn2agyoj5l)" height="294.1055" style="stroke: #EDECFF; stroke-width: 2.0;" width="889.5" x="237" y="585.3242"/><line style="stroke: #878787; stroke-width: 1.0; stroke-dasharray: 5.0,5.0;" x1="106" x2="106" y1="116.9766" y2="896.4297"/><line style="stroke: #878787; stroke-width: 1.0; stroke-dasharray: 5.0,5.0;" x1="300" x2="300" y1="116.9766" y2="896.4297"/><line style="stroke: #878787; stroke-width: 1.0; stroke-dasharray: 5.0,5.0;" x1="388" x2="388" y1="116.9766" y2="896.4297"/><line style="stroke: #878787; stroke-width: 1.0; stroke-dasharray: 5.0,5.0;" x1="548.5" x2="548.5" y1="116.9766" y2="896.4297"/><line style="stroke: #878787; stroke-width: 1.0; stroke-dasharray: 5.0,5.0;" x1="784" x2="784" y1="116.9766" y2="896.4297"/><line style="stroke: #878787; stroke-width: 1.0; stroke-dasharray: 5.0,5.0;" x1="922" x2="922" y1="116.9766" y2="896.4297"/><line style="stroke: #878787; stroke-width: 1.0; stroke-dasharray: 5.0,5.0;" x1="1070.5" x2="1070.5" y1="116.9766" y2="896.4297"/><rect fill="#FFFFFF" filter="url(#f5ppn2agyoj5l)" height="30.4883" rx="5" ry="5" style="stroke: #6959DB; stroke-width: 1.5;" width="142" x="33" y="81.4883"/><text fill="#000000" font-family="sans-serif" font-size="14" lengthAdjust="spacingAndGlyphs" textLength="128" x="40" y="102.0234">ProvisioningServer</text><rect fill="#FFFFFF" filter="url(#f5ppn2agyoj5l)" height="30.4883" rx="5" ry="5" style="stroke: #6959DB; stroke-width: 1.5;" width="142" x="33" y="895.4297"/><text fill="#000000" font-family="sans-serif" font-size="14" lengthAdjust="spacingAndGlyphs" textLength="128" x="40" y="915.9648">ProvisioningServer</text><rect fill="#FFFFFF" filter="url(#f5ppn2agyoj5l)" height="30.4883" rx="5" ry="5" style="stroke: #6959DB; stroke-width: 1.5;" width="82" x="257" y="81.4883"/><text fill="#000000" font-family="sans-serif" font-size="14" lengthAdjust="spacingAndGlyphs" textLength="68" x="264" y="102.0234">ClientApp</text><rect fill="#FFFFFF" filter="url(#f5ppn2agyoj5l)" height="30.4883" rx="5" ry="5" style="stroke: #6959DB; stroke-width: 1.5;" width="82" x="257" y="895.4297"/><text fill="#000000" font-family="sans-serif" font-size="14" lengthAdjust="spacingAndGlyphs" textLength="68" x="264" y="915.9648">ClientApp</text><text fill="#000000" font-family="sans-serif" font-size="14" lengthAdjust="spacingAndGlyphs" textLength="45" x="363" y="114.0234">Owner</text><ellipse cx="388.5" cy="43.4883" fill="#FFFFFF" filter="url(#f5ppn2agyoj5l)" rx="8" ry="8" style="stroke: #6959DB; stroke-width: 2.0;"/><path d="M388.5,51.4883 L388.5,78.4883 M375.5,59.4883 L401.5,59.4883 M388.5,78.4883 L375.5,93.4883 M388.5,78.4883 L401.5,93.4883 " fill="#FFFFFF" filter="url(#f5ppn2agyoj5l)" style="stroke: #6959DB; stroke-width: 2.0;"/><text fill="#000000" font-family="sans-serif" font-size="14" lengthAdjust="spacingAndGlyphs" textLength="45" x="363" y="908.9648">Owner</text><ellipse cx="388.5" cy="921.918" fill="#FFFFFF" filter="url(#f5ppn2agyoj5l)" rx="8" ry="8" style="stroke: #6959DB; stroke-width: 2.0;"/><path d="M388.5,929.918 L388.5,956.918 M375.5,937.918 L401.5,937.918 M388.5,956.918 L375.5,971.918 M388.5,956.918 L401.5,971.918 " fill="#FFFFFF" filter="url(#f5ppn2agyoj5l)" style="stroke: #6959DB; stroke-width: 2.0;"/><rect fill="#FFFFFF" filter="url(#f5ppn2agyoj5l)" height="30.4883" rx="5" ry="5" style="stroke: #6959DB; stroke-width: 1.5;" width="99" x="497.5" y="81.4883"/><text fill="#000000" font-family="sans-serif" font-size="14" lengthAdjust="spacingAndGlyphs" textLength="85" x="504.5" y="102.0234">UportMobile</text><rect fill="#FFFFFF" filter="url(#f5ppn2agyoj5l)" height="30.4883" rx="5" ry="5" style="stroke: #6959DB; stroke-width: 1.5;" width="99" x="497.5" y="895.4297"/><text fill="#000000" font-family="sans-serif" font-size="14" lengthAdjust="spacingAndGlyphs" textLength="85" x="504.5" y="915.9648">UportMobile</text><rect fill="#FFFFFF" filter="url(#f5ppn2agyoj5l)" height="30.4883" rx="5" ry="5" style="stroke: #6959DB; stroke-width: 1.5;" width="96" x="734" y="81.4883"/><text fill="#000000" font-family="sans-serif" font-size="14" lengthAdjust="spacingAndGlyphs" textLength="82" x="741" y="102.0234">RpcGateway</text><rect fill="#FFFFFF" filter="url(#f5ppn2agyoj5l)" height="30.4883" rx="5" ry="5" style="stroke: #6959DB; stroke-width: 1.5;" width="96" x="734" y="895.4297"/><text fill="#000000" font-family="sans-serif" font-size="14" lengthAdjust="spacingAndGlyphs" textLength="82" x="741" y="915.9648">RpcGateway</text><rect fill="#FFFFFF" filter="url(#f5ppn2agyoj5l)" height="30.4883" rx="5" ry="5" style="stroke: #6959DB; stroke-width: 1.5;" width="113" x="864" y="81.4883"/><text fill="#000000" font-family="sans-serif" font-size="14" lengthAdjust="spacingAndGlyphs" textLength="99" x="871" y="102.0234">FuelingService</text><rect fill="#FFFFFF" filter="url(#f5ppn2agyoj5l)" height="30.4883" rx="5" ry="5" style="stroke: #6959DB; stroke-width: 1.5;" width="113" x="864" y="895.4297"/><text fill="#000000" font-family="sans-serif" font-size="14" lengthAdjust="spacingAndGlyphs" textLength="99" x="871" y="915.9648">FuelingService</text><text fill="#000000" font-family="sans-serif" font-size="14" lengthAdjust="spacingAndGlyphs" textLength="86" x="1024.5" y="114.0234">PrivateChain</text><path d="M1052.5,64.4883 C1052.5,54.4883 1070.5,54.4883 1070.5,54.4883 C1070.5,54.4883 1088.5,54.4883 1088.5,64.4883 L1088.5,90.4883 C1088.5,100.4883 1070.5,100.4883 1070.5,100.4883 C1070.5,100.4883 1052.5,100.4883 1052.5,90.4883 L1052.5,64.4883 " fill="#FEFECE" filter="url(#f5ppn2agyoj5l)" style="stroke: #000000; stroke-width: 1.5;"/><path d="M1052.5,64.4883 C1052.5,74.4883 1070.5,74.4883 1070.5,74.4883 C1070.5,74.4883 1088.5,74.4883 1088.5,64.4883 " fill="none" style="stroke: #000000; stroke-width: 1.5;"/><text fill="#000000" font-family="sans-serif" font-size="14" lengthAdjust="spacingAndGlyphs" textLength="86" x="1024.5" y="908.9648">PrivateChain</text><path d="M1052.5,921.918 C1052.5,911.918 1070.5,911.918 1070.5,911.918 C1070.5,911.918 1088.5,911.918 1088.5,921.918 L1088.5,947.918 C1088.5,957.918 1070.5,957.918 1070.5,957.918 C1070.5,957.918 1052.5,957.918 1052.5,947.918 L1052.5,921.918 " fill="#FEFECE" filter="url(#f5ppn2agyoj5l)" style="stroke: #000000; stroke-width: 1.5;"/><path d="M1052.5,921.918 C1052.5,931.918 1070.5,931.918 1070.5,931.918 C1070.5,931.918 1088.5,931.918 1088.5,921.918 " fill="none" style="stroke: #000000; stroke-width: 1.5;"/><rect fill="none" height="437.3477" style="stroke: #EDECFF; stroke-width: 2.0;" width="1113.5" x="13" y="133.9766"/><polygon fill="#6959DB" points="13,133.9766,236,133.9766,236,140.9766,226,150.9766,13,150.9766,13,133.9766" style="stroke: #EDECFF; stroke-width: 2.0;"/><text fill="#FFFFFF" font-family="sans-serif" font-size="13" font-weight="bold" lengthAdjust="spacingAndGlyphs" textLength="178" x="28" y="147.5449">Private Chain Provisioning</text><line style="stroke: #6959DB; stroke-width: 1.0;" x1="106" x2="148" y1="172.5977" y2="172.5977"/><line style="stroke: #6959DB; stroke-width: 1.0;" x1="148" x2="148" y1="172.5977" y2="185.5977"/><line style="stroke: #6959DB; stroke-width: 1.0;" x1="107" x2="148" y1="185.5977" y2="185.5977"/><polygon fill="#6959DB" points="117,181.5977,107,185.5977,117,189.5977,113,185.5977" style="stroke: #6959DB; stroke-width: 1.0;"/><text fill="#000000" font-family="sans-serif" font-size="13" lengthAdjust="spacingAndGlyphs" textLength="180" x="113" y="167.8555">Selective Disclosure Request</text><polygon fill="#6959DB" points="376.5,210.5977,386.5,214.5977,376.5,218.5977,380.5,214.5977" style="stroke: #6959DB; stroke-width: 1.0;"/><line style="stroke: #6959DB; stroke-width: 1.0;" x1="106" x2="382.5" y1="214.5977" y2="214.5977"/><text fill="#000000" font-family="sans-serif" font-size="13" lengthAdjust="spacingAndGlyphs" textLength="211" x="113" y="210.166">Show QR code containing request</text><polygon fill="#6959DB" points="537,239.9082,547,243.9082,537,247.9082,541,243.9082" style="stroke: #6959DB; stroke-width: 1.0;"/><line style="stroke: #6959DB; stroke-width: 1.0;" x1="388.5" x2="543" y1="243.9082" y2="243.9082"/><text fill="#000000" font-family="sans-serif" font-size="13" lengthAdjust="spacingAndGlyphs" textLength="92" x="395.5" y="239.4766">Scans QR code</text><polygon fill="#6959DB" points="399.5,269.2188,389.5,273.2188,399.5,277.2188,395.5,273.2188" style="stroke: #6959DB; stroke-width: 1.0;"/><line style="stroke: #6959DB; stroke-width: 1.0;" x1="393.5" x2="548" y1="273.2188" y2="273.2188"/><text fill="#000000" font-family="sans-serif" font-size="13" lengthAdjust="spacingAndGlyphs" textLength="120" x="405.5" y="268.7871">Authorize Request?</text><polygon fill="#6959DB" points="537,298.5293,547,302.5293,537,306.5293,541,302.5293" style="stroke: #6959DB; stroke-width: 1.0;"/><line style="stroke: #6959DB; stroke-width: 1.0;" x1="388.5" x2="543" y1="302.5293" y2="302.5293"/><text fill="#000000" font-family="sans-serif" font-size="13" lengthAdjust="spacingAndGlyphs" textLength="96" x="395.5" y="298.0977">Allow/Disallow</text><line style="stroke: #6959DB; stroke-width: 1.0;" x1="549" x2="591" y1="332.1504" y2="332.1504"/><line style="stroke: #6959DB; stroke-width: 1.0;" x1="591" x2="591" y1="332.1504" y2="345.1504"/><line style="stroke: #6959DB; stroke-width: 1.0;" x1="550" x2="591" y1="345.1504" y2="345.1504"/><polygon fill="#6959DB" points="560,341.1504,550,345.1504,560,349.1504,556,345.1504" style="stroke: #6959DB; stroke-width: 1.0;"/><text fill="#000000" font-family="sans-serif" font-size="13" lengthAdjust="spacingAndGlyphs" textLength="221" x="556" y="327.4082">Sign Selective Disclosure Response</text><polygon fill="#6959DB" points="117,370.1504,107,374.1504,117,378.1504,113,374.1504" style="stroke: #6959DB; stroke-width: 1.0;"/><line style="stroke: #6959DB; stroke-width: 1.0;" x1="111" x2="548" y1="374.1504" y2="374.1504"/><text fill="#000000" font-family="sans-serif" font-size="13" lengthAdjust="spacingAndGlyphs" textLength="190" x="123" y="369.7188">Selective Disclosure Response</text><polygon fill="#6959DB" points="772,399.4609,782,403.4609,772,407.4609,776,403.4609" style="stroke: #6959DB; stroke-width: 1.0;"/><line style="stroke: #6959DB; stroke-width: 1.0;" x1="106" x2="778" y1="403.4609" y2="403.4609"/><text fill="#000000" font-family="sans-serif" font-size="13" lengthAdjust="spacingAndGlyphs" textLength="174" x="113" y="399.0293">Create Account Transaction</text><polygon fill="#6959DB" points="1058.5,428.7715,1068.5,432.7715,1058.5,436.7715,1062.5,432.7715" style="stroke: #6959DB; stroke-width: 1.0;"/><line style="stroke: #6959DB; stroke-width: 1.0;" x1="784" x2="1064.5" y1="432.7715" y2="432.7715"/><text fill="#000000" font-family="sans-serif" font-size="13" lengthAdjust="spacingAndGlyphs" textLength="122" x="791" y="428.3398">Submit Transaction</text><polygon fill="#6959DB" points="537,458.082,547,462.082,537,466.082,541,462.082" style="stroke: #6959DB; stroke-width: 1.0;"/><line style="stroke: #6959DB; stroke-width: 1.0;" x1="106" x2="543" y1="462.082" y2="462.082"/><text fill="#000000" font-family="sans-serif" font-size="13" lengthAdjust="spacingAndGlyphs" textLength="256" x="113" y="457.6504">Send Private Chain Provisioning Message</text><polygon fill="#6959DB" points="399.5,487.3926,389.5,491.3926,399.5,495.3926,395.5,491.3926" style="stroke: #6959DB; stroke-width: 1.0;"/><line style="stroke: #6959DB; stroke-width: 1.0;" x1="393.5" x2="548" y1="491.3926" y2="491.3926"/><text fill="#000000" font-family="sans-serif" font-size="13" lengthAdjust="spacingAndGlyphs" textLength="120" x="405.5" y="486.9609">Authorize Request?</text><polygon fill="#6959DB" points="537,516.7031,547,520.7031,537,524.7031,541,520.7031" style="stroke: #6959DB; stroke-width: 1.0;"/><line style="stroke: #6959DB; stroke-width: 1.0;" x1="388.5" x2="543" y1="520.7031" y2="520.7031"/><text fill="#000000" font-family="sans-serif" font-size="13" lengthAdjust="spacingAndGlyphs" textLength="96" x="395.5" y="516.2715">Allow/Disallow</text><line style="stroke: #6959DB; stroke-width: 1.0;" x1="549" x2="591" y1="550.3242" y2="550.3242"/><line style="stroke: #6959DB; stroke-width: 1.0;" x1="591" x2="591" y1="550.3242" y2="563.3242"/><line style="stroke: #6959DB; stroke-width: 1.0;" x1="550" x2="591" y1="563.3242" y2="563.3242"/><polygon fill="#6959DB" points="560,559.3242,550,563.3242,560,567.3242,556,563.3242" style="stroke: #6959DB; stroke-width: 1.0;"/><text fill="#000000" font-family="sans-serif" font-size="13" lengthAdjust="spacingAndGlyphs" textLength="134" x="556" y="545.582">Store Account details</text><rect fill="none" height="294.1055" style="stroke: #EDECFF; stroke-width: 2.0;" width="889.5" x="237" y="585.3242"/><polygon fill="#6959DB" points="237,585.3242,449,585.3242,449,592.3242,439,602.3242,237,602.3242,237,585.3242" style="stroke: #EDECFF; stroke-width: 2.0;"/><text fill="#FFFFFF" font-family="sans-serif" font-size="13" font-weight="bold" lengthAdjust="spacingAndGlyphs" textLength="167" x="252" y="598.8926">Private Chain Interaction</text><polygon fill="#6959DB" points="537,619.6348,547,623.6348,537,627.6348,541,623.6348" style="stroke: #6959DB; stroke-width: 1.0;"/><line style="stroke: #6959DB; stroke-width: 1.0;" x1="300" x2="543" y1="623.6348" y2="623.6348"/><text fill="#000000" font-family="sans-serif" font-size="13" lengthAdjust="spacingAndGlyphs" textLength="225" x="307" y="619.2031">Send Ethereum Transaction Request</text><polygon fill="#6959DB" points="399.5,648.9453,389.5,652.9453,399.5,656.9453,395.5,652.9453" style="stroke: #6959DB; stroke-width: 1.0;"/><line style="stroke: #6959DB; stroke-width: 1.0;" x1="393.5" x2="548" y1="652.9453" y2="652.9453"/><text fill="#000000" font-family="sans-serif" font-size="13" lengthAdjust="spacingAndGlyphs" textLength="120" x="405.5" y="648.5137">Authorize Request?</text><polygon fill="#6959DB" points="537,678.2559,547,682.2559,537,686.2559,541,682.2559" style="stroke: #6959DB; stroke-width: 1.0;"/><line style="stroke: #6959DB; stroke-width: 1.0;" x1="388.5" x2="543" y1="682.2559" y2="682.2559"/><text fill="#000000" font-family="sans-serif" font-size="13" lengthAdjust="spacingAndGlyphs" textLength="96" x="395.5" y="677.8242">Allow/Disallow</text><line style="stroke: #6959DB; stroke-width: 1.0;" x1="549" x2="591" y1="711.877" y2="711.877"/><line style="stroke: #6959DB; stroke-width: 1.0;" x1="591" x2="591" y1="711.877" y2="724.877"/><line style="stroke: #6959DB; stroke-width: 1.0;" x1="550" x2="591" y1="724.877" y2="724.877"/><polygon fill="#6959DB" points="560,720.877,550,724.877,560,728.877,556,724.877" style="stroke: #6959DB; stroke-width: 1.0;"/><text fill="#000000" font-family="sans-serif" font-size="13" lengthAdjust="spacingAndGlyphs" textLength="105" x="556" y="707.1348">Sign Transaction</text><polygon fill="#6959DB" points="910.5,749.877,920.5,753.877,910.5,757.877,914.5,753.877" style="stroke: #6959DB; stroke-width: 1.0;"/><line style="stroke: #6959DB; stroke-width: 1.0;" x1="549" x2="916.5" y1="753.877" y2="753.877"/><text fill="#000000" font-family="sans-serif" font-size="13" lengthAdjust="spacingAndGlyphs" textLength="173" x="556" y="749.4453">Request gas for transaction</text><polygon fill="#6959DB" points="1058.5,779.1875,1068.5,783.1875,1058.5,787.1875,1062.5,783.1875" style="stroke: #6959DB; stroke-width: 1.0;"/><line style="stroke: #6959DB; stroke-width: 1.0;" x1="922.5" x2="1064.5" y1="783.1875" y2="783.1875"/><text fill="#000000" font-family="sans-serif" font-size="13" lengthAdjust="spacingAndGlyphs" textLength="124" x="929.5" y="778.7559">Fueling Transaction</text><polygon fill="#6959DB" points="1058.5,808.498,1068.5,812.498,1058.5,816.498,1062.5,812.498" style="stroke: #6959DB; stroke-width: 1.0;"/><line style="stroke: #6959DB; stroke-width: 1.0;" x1="549" x2="1064.5" y1="812.498" y2="812.498"/><text fill="#000000" font-family="sans-serif" font-size="13" lengthAdjust="spacingAndGlyphs" textLength="120" x="556" y="808.0664">Signed Transaction</text><polygon fill="#6959DB" points="311,837.8086,301,841.8086,311,845.8086,307,841.8086" style="stroke: #6959DB; stroke-width: 1.0;"/><line style="stroke: #6959DB; stroke-width: 1.0;" x1="305" x2="548" y1="841.8086" y2="841.8086"/><text fill="#000000" font-family="sans-serif" font-size="13" lengthAdjust="spacingAndGlyphs" textLength="110" x="317" y="837.377">Transaction Hash</text><polygon fill="#6959DB" points="311,867.1191,301,871.1191,311,875.1191,307,871.1191" style="stroke: #6959DB; stroke-width: 1.0;"/><polygon fill="#6959DB" points="1058.5,867.1191,1068.5,871.1191,1058.5,875.1191,1062.5,871.1191" style="stroke: #6959DB; stroke-width: 1.0;"/><line style="stroke: #6959DB; stroke-width: 1.0;" x1="305" x2="1064.5" y1="871.1191" y2="871.1191"/><text fill="#000000" font-family="sans-serif" font-size="13" lengthAdjust="spacingAndGlyphs" textLength="161" x="317" y="866.6875">Transaction Confirmation</text><!--
@startuml
skinparam roundcorner 10
skinparam BoxPadding 10
skinparam headerFontColor #6959DB
skinparam headerFontSize 18
skinparam sequence {
  ArrowColor #6959DB
  GroupBackgroundColor #6959DB
  GroupBorderColor #EDECFF
  GroupHeaderFontColor #ffffff
  BoxBorderColor #6959DB
  BoxBackgroundColor #EDECFF
  BoxPadding 10

  ParticipantBorderColor #6959DB
  ParticipantBackgroundColor #ffffff
  ParticipantPadding 10

  ActorBorderColor #6959DB
  ActorBackgroundColor #ffffff
  EntityBorderColor #6959DB
  EntityBackgroundColor #ffffff
  DatabaseBorderColor #6959DB
  DatabaseBackgroundColor #ffffff

  LifeLineBorderColor #878787
}

title Private Chain Provisioning Flow 
participant ProvisioningServer
participant ClientApp
actor Owner
participant UportMobile
participant RpcGateway
participant FuelingService
database PrivateChain

group Private Chain Provisioning
  ProvisioningServer -> ProvisioningServer : Selective Disclosure Request
  ProvisioningServer -> Owner : Show QR code containing request
  Owner -> UportMobile: Scans QR code
  UportMobile -> Owner : Authorize Request?
  Owner -> UportMobile: Allow/Disallow
  UportMobile -> UportMobile: Sign Selective Disclosure Response
  UportMobile -> ProvisioningServer: Selective Disclosure Response
  ProvisioningServer -> RpcGateway : Create Account Transaction
  RpcGateway -> PrivateChain : Submit Transaction
  ProvisioningServer -> UportMobile : Send Private Chain Provisioning Message
  UportMobile -> Owner : Authorize Request?
  Owner -> UportMobile: Allow/Disallow
  UportMobile -> UportMobile: Store Account details
end

group Private Chain Interaction
  ClientApp -> UportMobile : Send Ethereum Transaction Request
  UportMobile -> Owner : Authorize Request?
  Owner -> UportMobile: Allow/Disallow
  UportMobile -> UportMobile: Sign Transaction
  UportMobile -> FuelingService: Request gas for transaction
  FuelingService -> PrivateChain: Fueling Transaction
  UportMobile -> PrivateChain: Signed Transaction
  UportMobile -> ClientApp: Transaction Hash
  ClientApp <-> PrivateChain: Transaction Confirmation
end
@enduml

PlantUML version 1.2017.19(Sun Nov 12 05:46:22 CST 2017)
(GPL source distribution)
Java Runtime: Java(TM) SE Runtime Environment
JVM: Java HotSpot(TM) 64-Bit Server VM
Java Version: 1.8.0_144-b01
Operating System: Mac OS X
OS Version: 10.13.1
Default Encoding: UTF-8
Language: en
Country: US
--></g></svg>