<?xml version="1.0" encoding="UTF-8" standalone="no"?><svg xmlns="http://www.w3.org/2000/svg" xmlns:xlink="http://www.w3.org/1999/xlink" contentScriptType="application/ecmascript" contentStyleType="text/css" height="501px" preserveAspectRatio="none" style="width:714px;height:501px;" version="1.1" viewBox="0 0 714 501" width="714px" zoomAndPan="magnify"><defs><filter height="300%" id="f1f8sm6e5jxntr" width="300%" x="-1" y="-1"><feGaussianBlur result="blurOut" stdDeviation="2.0"/><feColorMatrix in="blurOut" result="blurOut2" type="matrix" values="0 0 0 0 0 0 0 0 0 0 0 0 0 0 0 0 0 0 .4 0"/><feOffset dx="4.0" dy="4.0" in="blurOut2" result="blurOut3"/><feBlend in="SourceGraphic" in2="blurOut3" mode="normal"/></filter></defs><g><text fill="#000000" font-family="sans-serif" font-size="14" font-weight="bold" lengthAdjust="spacingAndGlyphs" textLength="242" x="237" y="23.5352">Uport Ethereum Transaction Flow</text><line style="stroke: #878787; stroke-width: 1.0; stroke-dasharray: 5.0,5.0;" x1="61" x2="61" y1="116.9766" y2="413.7715"/><line style="stroke: #878787; stroke-width: 1.0; stroke-dasharray: 5.0,5.0;" x1="275.5" x2="275.5" y1="116.9766" y2="413.7715"/><line style="stroke: #878787; stroke-width: 1.0; stroke-dasharray: 5.0,5.0;" x1="419.5" x2="419.5" y1="116.9766" y2="413.7715"/><line style="stroke: #878787; stroke-width: 1.0; stroke-dasharray: 5.0,5.0;" x1="523.5" x2="523.5" y1="116.9766" y2="413.7715"/><line style="stroke: #878787; stroke-width: 1.0; stroke-dasharray: 5.0,5.0;" x1="672" x2="672" y1="116.9766" y2="413.7715"/><rect fill="#FFFFFF" filter="url(#f1f8sm6e5jxntr)" height="30.4883" rx="5" ry="5" style="stroke: #6959DB; stroke-width: 1.5;" width="82" x="18" y="81.4883"/><text fill="#000000" font-family="sans-serif" font-size="14" lengthAdjust="spacingAndGlyphs" textLength="68" x="25" y="102.0234">ClientApp</text><rect fill="#FFFFFF" filter="url(#f1f8sm6e5jxntr)" height="30.4883" rx="5" ry="5" style="stroke: #6959DB; stroke-width: 1.5;" width="82" x="18" y="412.7715"/><text fill="#000000" font-family="sans-serif" font-size="14" lengthAdjust="spacingAndGlyphs" textLength="68" x="25" y="433.3066">ClientApp</text><rect fill="#FFFFFF" filter="url(#f1f8sm6e5jxntr)" height="30.4883" rx="5" ry="5" style="stroke: #6959DB; stroke-width: 1.5;" width="99" x="224.5" y="81.4883"/><text fill="#000000" font-family="sans-serif" font-size="14" lengthAdjust="spacingAndGlyphs" textLength="85" x="231.5" y="102.0234">UportMobile</text><rect fill="#FFFFFF" filter="url(#f1f8sm6e5jxntr)" height="30.4883" rx="5" ry="5" style="stroke: #6959DB; stroke-width: 1.5;" width="99" x="224.5" y="412.7715"/><text fill="#000000" font-family="sans-serif" font-size="14" lengthAdjust="spacingAndGlyphs" textLength="85" x="231.5" y="433.3066">UportMobile</text><text fill="#000000" font-family="sans-serif" font-size="14" lengthAdjust="spacingAndGlyphs" textLength="45" x="394.5" y="114.0234">Owner</text><ellipse cx="420" cy="43.4883" fill="#FFFFFF" filter="url(#f1f8sm6e5jxntr)" rx="8" ry="8" style="stroke: #6959DB; stroke-width: 2.0;"/><path d="M420,51.4883 L420,78.4883 M407,59.4883 L433,59.4883 M420,78.4883 L407,93.4883 M420,78.4883 L433,93.4883 " fill="#FFFFFF" filter="url(#f1f8sm6e5jxntr)" style="stroke: #6959DB; stroke-width: 2.0;"/><text fill="#000000" font-family="sans-serif" font-size="14" lengthAdjust="spacingAndGlyphs" textLength="45" x="394.5" y="426.3066">Owner</text><ellipse cx="420" cy="439.2598" fill="#FFFFFF" filter="url(#f1f8sm6e5jxntr)" rx="8" ry="8" style="stroke: #6959DB; stroke-width: 2.0;"/><path d="M420,447.2598 L420,474.2598 M407,455.2598 L433,455.2598 M420,474.2598 L407,489.2598 M420,474.2598 L433,489.2598 " fill="#FFFFFF" filter="url(#f1f8sm6e5jxntr)" style="stroke: #6959DB; stroke-width: 2.0;"/><rect fill="#FFFFFF" filter="url(#f1f8sm6e5jxntr)" height="30.4883" rx="5" ry="5" style="stroke: #6959DB; stroke-width: 1.5;" width="113" x="465.5" y="81.4883"/><text fill="#000000" font-family="sans-serif" font-size="14" lengthAdjust="spacingAndGlyphs" textLength="99" x="472.5" y="102.0234">FuelingService</text><rect fill="#FFFFFF" filter="url(#f1f8sm6e5jxntr)" height="30.4883" rx="5" ry="5" style="stroke: #6959DB; stroke-width: 1.5;" width="113" x="465.5" y="412.7715"/><text fill="#000000" font-family="sans-serif" font-size="14" lengthAdjust="spacingAndGlyphs" textLength="99" x="472.5" y="433.3066">FuelingService</text><text fill="#000000" font-family="sans-serif" font-size="14" lengthAdjust="spacingAndGlyphs" textLength="66" x="636" y="114.0234">Ethereum</text><path d="M654,64.4883 C654,54.4883 672,54.4883 672,54.4883 C672,54.4883 690,54.4883 690,64.4883 L690,90.4883 C690,100.4883 672,100.4883 672,100.4883 C672,100.4883 654,100.4883 654,90.4883 L654,64.4883 " fill="#FEFECE" filter="url(#f1f8sm6e5jxntr)" style="stroke: #000000; stroke-width: 1.5;"/><path d="M654,64.4883 C654,74.4883 672,74.4883 672,74.4883 C672,74.4883 690,74.4883 690,64.4883 " fill="none" style="stroke: #000000; stroke-width: 1.5;"/><text fill="#000000" font-family="sans-serif" font-size="14" lengthAdjust="spacingAndGlyphs" textLength="66" x="636" y="426.3066">Ethereum</text><path d="M654,439.2598 C654,429.2598 672,429.2598 672,429.2598 C672,429.2598 690,429.2598 690,439.2598 L690,465.2598 C690,475.2598 672,475.2598 672,475.2598 C672,475.2598 654,475.2598 654,465.2598 L654,439.2598 " fill="#FEFECE" filter="url(#f1f8sm6e5jxntr)" style="stroke: #000000; stroke-width: 1.5;"/><path d="M654,439.2598 C654,449.2598 672,449.2598 672,449.2598 C672,449.2598 690,449.2598 690,439.2598 " fill="none" style="stroke: #000000; stroke-width: 1.5;"/><polygon fill="#6959DB" points="264,143.9766,274,147.9766,264,151.9766,268,147.9766" style="stroke: #6959DB; stroke-width: 1.0;"/><line style="stroke: #6959DB; stroke-width: 1.0;" x1="61" x2="270" y1="147.9766" y2="147.9766"/><text fill="#000000" font-family="sans-serif" font-size="13" lengthAdjust="spacingAndGlyphs" textLength="191" x="68" y="143.5449">Ethereum Transaction Request</text><polygon fill="#6959DB" points="408,173.2871,418,177.2871,408,181.2871,412,177.2871" style="stroke: #6959DB; stroke-width: 1.0;"/><line style="stroke: #6959DB; stroke-width: 1.0;" x1="276" x2="414" y1="177.2871" y2="177.2871"/><text fill="#000000" font-family="sans-serif" font-size="13" lengthAdjust="spacingAndGlyphs" textLength="120" x="283" y="172.8555">Authorize Request?</text><polygon fill="#6959DB" points="287,202.5977,277,206.5977,287,210.5977,283,206.5977" style="stroke: #6959DB; stroke-width: 1.0;"/><line style="stroke: #6959DB; stroke-width: 1.0;" x1="281" x2="419" y1="206.5977" y2="206.5977"/><text fill="#000000" font-family="sans-serif" font-size="13" lengthAdjust="spacingAndGlyphs" textLength="96" x="293" y="202.166">Allow/Disallow</text><line style="stroke: #6959DB; stroke-width: 1.0;" x1="276" x2="318" y1="236.2188" y2="236.2188"/><line style="stroke: #6959DB; stroke-width: 1.0;" x1="318" x2="318" y1="236.2188" y2="249.2188"/><line style="stroke: #6959DB; stroke-width: 1.0;" x1="277" x2="318" y1="249.2188" y2="249.2188"/><polygon fill="#6959DB" points="287,245.2188,277,249.2188,287,253.2188,283,249.2188" style="stroke: #6959DB; stroke-width: 1.0;"/><text fill="#000000" font-family="sans-serif" font-size="13" lengthAdjust="spacingAndGlyphs" textLength="105" x="283" y="231.4766">Sign Transaction</text><polygon fill="#6959DB" points="512,274.2188,522,278.2188,512,282.2188,516,278.2188" style="stroke: #6959DB; stroke-width: 1.0;"/><line style="stroke: #6959DB; stroke-width: 1.0;" x1="276" x2="518" y1="278.2188" y2="278.2188"/><text fill="#000000" font-family="sans-serif" font-size="13" lengthAdjust="spacingAndGlyphs" textLength="173" x="283" y="273.7871">Request gas for transaction</text><polygon fill="#6959DB" points="660,303.5293,670,307.5293,660,311.5293,664,307.5293" style="stroke: #6959DB; stroke-width: 1.0;"/><line style="stroke: #6959DB; stroke-width: 1.0;" x1="524" x2="666" y1="307.5293" y2="307.5293"/><text fill="#000000" font-family="sans-serif" font-size="13" lengthAdjust="spacingAndGlyphs" textLength="124" x="531" y="303.0977">Fueling Transaction</text><polygon fill="#6959DB" points="660,332.8398,670,336.8398,660,340.8398,664,336.8398" style="stroke: #6959DB; stroke-width: 1.0;"/><line style="stroke: #6959DB; stroke-width: 1.0;" x1="276" x2="666" y1="336.8398" y2="336.8398"/><text fill="#000000" font-family="sans-serif" font-size="13" lengthAdjust="spacingAndGlyphs" textLength="120" x="283" y="332.4082">Signed Transaction</text><polygon fill="#6959DB" points="72,362.1504,62,366.1504,72,370.1504,68,366.1504" style="stroke: #6959DB; stroke-width: 1.0;"/><line style="stroke: #6959DB; stroke-width: 1.0;" x1="66" x2="275" y1="366.1504" y2="366.1504"/><text fill="#000000" font-family="sans-serif" font-size="13" lengthAdjust="spacingAndGlyphs" textLength="110" x="78" y="361.7188">Transaction Hash</text><polygon fill="#6959DB" points="72,391.4609,62,395.4609,72,399.4609,68,395.4609" style="stroke: #6959DB; stroke-width: 1.0;"/><polygon fill="#6959DB" points="660,391.4609,670,395.4609,660,399.4609,664,395.4609" style="stroke: #6959DB; stroke-width: 1.0;"/><line style="stroke: #6959DB; stroke-width: 1.0;" x1="66" x2="666" y1="395.4609" y2="395.4609"/><text fill="#000000" font-family="sans-serif" font-size="13" lengthAdjust="spacingAndGlyphs" textLength="161" x="78" y="391.0293">Transaction Confirmation</text><!--
@startuml
skinparam roundcorner 10
skinparam BoxPadding 10
skinparam headerFontColor #6959DB
skinparam headerFontSize 18
skinparam sequence {
  ArrowColor #6959DB
  GroupBackgroundColor #6959DB
  GroupBorderColor #EDECFF
  GroupHeaderFontColor #ffffff
  BoxBorderColor #6959DB
  BoxBackgroundColor #EDECFF
  BoxPadding 10

  ParticipantBorderColor #6959DB
  ParticipantBackgroundColor #ffffff
  ParticipantPadding 10

  ActorBorderColor #6959DB
  ActorBackgroundColor #ffffff
  EntityBorderColor #6959DB
  EntityBackgroundColor #ffffff
  DatabaseBorderColor #6959DB
  DatabaseBackgroundColor #ffffff

  LifeLineBorderColor #878787
}

title Uport Ethereum Transaction Flow
participant ClientApp
participant UportMobile
actor Owner
participant FuelingService
database Ethereum

ClientApp -> UportMobile : Ethereum Transaction Request
UportMobile -> Owner : Authorize Request?
Owner -> UportMobile: Allow/Disallow
UportMobile -> UportMobile: Sign Transaction
UportMobile -> FuelingService: Request gas for transaction
FuelingService -> Ethereum: Fueling Transaction
UportMobile -> Ethereum: Signed Transaction
UportMobile -> ClientApp: Transaction Hash
ClientApp <-> Ethereum: Transaction Confirmation

@enduml

PlantUML version 1.2017.19(Sun Nov 12 05:46:22 CST 2017)
(GPL source distribution)
Java Runtime: Java(TM) SE Runtime Environment
JVM: Java HotSpot(TM) 64-Bit Server VM
Java Version: 1.8.0_144-b01
Operating System: Mac OS X
OS Version: 10.13.4
Default Encoding: UTF-8
Language: en
Country: US
--></g></svg>