<?xml version="1.0" encoding="UTF-8" standalone="no"?><svg xmlns="http://www.w3.org/2000/svg" xmlns:xlink="http://www.w3.org/1999/xlink" contentScriptType="application/ecmascript" contentStyleType="text/css" height="501px" preserveAspectRatio="none" style="width:633px;height:501px;" version="1.1" viewBox="0 0 633 501" width="633px" zoomAndPan="magnify"><defs><filter height="300%" id="f1q66kf4rsxptf" width="300%" x="-1" y="-1"><feGaussianBlur result="blurOut" stdDeviation="2.0"/><feColorMatrix in="blurOut" result="blurOut2" type="matrix" values="0 0 0 0 0 0 0 0 0 0 0 0 0 0 0 0 0 0 .4 0"/><feOffset dx="4.0" dy="4.0" in="blurOut2" result="blurOut3"/><feBlend in="SourceGraphic" in2="blurOut3" mode="normal"/></filter></defs><g><text fill="#000000" font-family="sans-serif" font-size="14" font-weight="bold" lengthAdjust="spacingAndGlyphs" textLength="242" x="196.5" y="23.5352">Uport Ethereum Transaction Flow</text><line style="stroke: #878787; stroke-width: 1.0; stroke-dasharray: 5.0,5.0;" x1="61" x2="61" y1="116.9766" y2="413.7715"/><line style="stroke: #878787; stroke-width: 1.0; stroke-dasharray: 5.0,5.0;" x1="194.5" x2="194.5" y1="116.9766" y2="413.7715"/><line style="stroke: #878787; stroke-width: 1.0; stroke-dasharray: 5.0,5.0;" x1="338.5" x2="338.5" y1="116.9766" y2="413.7715"/><line style="stroke: #878787; stroke-width: 1.0; stroke-dasharray: 5.0,5.0;" x1="442.5" x2="442.5" y1="116.9766" y2="413.7715"/><line style="stroke: #878787; stroke-width: 1.0; stroke-dasharray: 5.0,5.0;" x1="591" x2="591" y1="116.9766" y2="413.7715"/><rect fill="#FFFFFF" filter="url(#f1q66kf4rsxptf)" height="30.4883" rx="5" ry="5" style="stroke: #6959DB; stroke-width: 1.5;" width="82" x="18" y="81.4883"/><text fill="#000000" font-family="sans-serif" font-size="14" lengthAdjust="spacingAndGlyphs" textLength="68" x="25" y="102.0234">ClientApp</text><rect fill="#FFFFFF" filter="url(#f1q66kf4rsxptf)" height="30.4883" rx="5" ry="5" style="stroke: #6959DB; stroke-width: 1.5;" width="82" x="18" y="412.7715"/><text fill="#000000" font-family="sans-serif" font-size="14" lengthAdjust="spacingAndGlyphs" textLength="68" x="25" y="433.3066">ClientApp</text><rect fill="#FFFFFF" filter="url(#f1q66kf4rsxptf)" height="30.4883" rx="5" ry="5" style="stroke: #6959DB; stroke-width: 1.5;" width="99" x="143.5" y="81.4883"/><text fill="#000000" font-family="sans-serif" font-size="14" lengthAdjust="spacingAndGlyphs" textLength="85" x="150.5" y="102.0234">UportMobile</text><rect fill="#FFFFFF" filter="url(#f1q66kf4rsxptf)" height="30.4883" rx="5" ry="5" style="stroke: #6959DB; stroke-width: 1.5;" width="99" x="143.5" y="412.7715"/><text fill="#000000" font-family="sans-serif" font-size="14" lengthAdjust="spacingAndGlyphs" textLength="85" x="150.5" y="433.3066">UportMobile</text><text fill="#000000" font-family="sans-serif" font-size="14" lengthAdjust="spacingAndGlyphs" textLength="45" x="313.5" y="114.0234">Owner</text><ellipse cx="339" cy="43.4883" fill="#FFFFFF" filter="url(#f1q66kf4rsxptf)" rx="8" ry="8" style="stroke: #6959DB; stroke-width: 2.0;"/><path d="M339,51.4883 L339,78.4883 M326,59.4883 L352,59.4883 M339,78.4883 L326,93.4883 M339,78.4883 L352,93.4883 " fill="#FFFFFF" filter="url(#f1q66kf4rsxptf)" style="stroke: #6959DB; stroke-width: 2.0;"/><text fill="#000000" font-family="sans-serif" font-size="14" lengthAdjust="spacingAndGlyphs" textLength="45" x="313.5" y="426.3066">Owner</text><ellipse cx="339" cy="439.2598" fill="#FFFFFF" filter="url(#f1q66kf4rsxptf)" rx="8" ry="8" style="stroke: #6959DB; stroke-width: 2.0;"/><path d="M339,447.2598 L339,474.2598 M326,455.2598 L352,455.2598 M339,474.2598 L326,489.2598 M339,474.2598 L352,489.2598 " fill="#FFFFFF" filter="url(#f1q66kf4rsxptf)" style="stroke: #6959DB; stroke-width: 2.0;"/><rect fill="#FFFFFF" filter="url(#f1q66kf4rsxptf)" height="30.4883" rx="5" ry="5" style="stroke: #6959DB; stroke-width: 1.5;" width="113" x="384.5" y="81.4883"/><text fill="#000000" font-family="sans-serif" font-size="14" lengthAdjust="spacingAndGlyphs" textLength="99" x="391.5" y="102.0234">FuelingService</text><rect fill="#FFFFFF" filter="url(#f1q66kf4rsxptf)" height="30.4883" rx="5" ry="5" style="stroke: #6959DB; stroke-width: 1.5;" width="113" x="384.5" y="412.7715"/><text fill="#000000" font-family="sans-serif" font-size="14" lengthAdjust="spacingAndGlyphs" textLength="99" x="391.5" y="433.3066">FuelingService</text><text fill="#000000" font-family="sans-serif" font-size="14" lengthAdjust="spacingAndGlyphs" textLength="66" x="555" y="114.0234">Ethereum</text><path d="M573,64.4883 C573,54.4883 591,54.4883 591,54.4883 C591,54.4883 609,54.4883 609,64.4883 L609,90.4883 C609,100.4883 591,100.4883 591,100.4883 C591,100.4883 573,100.4883 573,90.4883 L573,64.4883 " fill="#FEFECE" filter="url(#f1q66kf4rsxptf)" style="stroke: #000000; stroke-width: 1.5;"/><path d="M573,64.4883 C573,74.4883 591,74.4883 591,74.4883 C591,74.4883 609,74.4883 609,64.4883 " fill="none" style="stroke: #000000; stroke-width: 1.5;"/><text fill="#000000" font-family="sans-serif" font-size="14" lengthAdjust="spacingAndGlyphs" textLength="66" x="555" y="426.3066">Ethereum</text><path d="M573,439.2598 C573,429.2598 591,429.2598 591,429.2598 C591,429.2598 609,429.2598 609,439.2598 L609,465.2598 C609,475.2598 591,475.2598 591,475.2598 C591,475.2598 573,475.2598 573,465.2598 L573,439.2598 " fill="#FEFECE" filter="url(#f1q66kf4rsxptf)" style="stroke: #000000; stroke-width: 1.5;"/><path d="M573,439.2598 C573,449.2598 591,449.2598 591,449.2598 C591,449.2598 609,449.2598 609,439.2598 " fill="none" style="stroke: #000000; stroke-width: 1.5;"/><polygon fill="#6959DB" points="183,143.9766,193,147.9766,183,151.9766,187,147.9766" style="stroke: #6959DB; stroke-width: 1.0;"/><line style="stroke: #6959DB; stroke-width: 1.0;" x1="61" x2="189" y1="147.9766" y2="147.9766"/><text fill="#000000" font-family="sans-serif" font-size="13" lengthAdjust="spacingAndGlyphs" textLength="98" x="68" y="143.5449">ERC 76 Request</text><polygon fill="#6959DB" points="327,173.2871,337,177.2871,327,181.2871,331,177.2871" style="stroke: #6959DB; stroke-width: 1.0;"/><line style="stroke: #6959DB; stroke-width: 1.0;" x1="195" x2="333" y1="177.2871" y2="177.2871"/><text fill="#000000" font-family="sans-serif" font-size="13" lengthAdjust="spacingAndGlyphs" textLength="120" x="202" y="172.8555">Authorize Request?</text><polygon fill="#6959DB" points="206,202.5977,196,206.5977,206,210.5977,202,206.5977" style="stroke: #6959DB; stroke-width: 1.0;"/><line style="stroke: #6959DB; stroke-width: 1.0;" x1="200" x2="338" y1="206.5977" y2="206.5977"/><text fill="#000000" font-family="sans-serif" font-size="13" lengthAdjust="spacingAndGlyphs" textLength="96" x="212" y="202.166">Allow/Disallow</text><line style="stroke: #6959DB; stroke-width: 1.0;" x1="195" x2="237" y1="236.2188" y2="236.2188"/><line style="stroke: #6959DB; stroke-width: 1.0;" x1="237" x2="237" y1="236.2188" y2="249.2188"/><line style="stroke: #6959DB; stroke-width: 1.0;" x1="196" x2="237" y1="249.2188" y2="249.2188"/><polygon fill="#6959DB" points="206,245.2188,196,249.2188,206,253.2188,202,249.2188" style="stroke: #6959DB; stroke-width: 1.0;"/><text fill="#000000" font-family="sans-serif" font-size="13" lengthAdjust="spacingAndGlyphs" textLength="105" x="202" y="231.4766">Sign Transaction</text><polygon fill="#6959DB" points="431,274.2188,441,278.2188,431,282.2188,435,278.2188" style="stroke: #6959DB; stroke-width: 1.0;"/><line style="stroke: #6959DB; stroke-width: 1.0;" x1="195" x2="437" y1="278.2188" y2="278.2188"/><text fill="#000000" font-family="sans-serif" font-size="13" lengthAdjust="spacingAndGlyphs" textLength="173" x="202" y="273.7871">Request gas for transaction</text><polygon fill="#6959DB" points="579,303.5293,589,307.5293,579,311.5293,583,307.5293" style="stroke: #6959DB; stroke-width: 1.0;"/><line style="stroke: #6959DB; stroke-width: 1.0;" x1="443" x2="585" y1="307.5293" y2="307.5293"/><text fill="#000000" font-family="sans-serif" font-size="13" lengthAdjust="spacingAndGlyphs" textLength="124" x="450" y="303.0977">Fueling Transaction</text><polygon fill="#6959DB" points="579,332.8398,589,336.8398,579,340.8398,583,336.8398" style="stroke: #6959DB; stroke-width: 1.0;"/><line style="stroke: #6959DB; stroke-width: 1.0;" x1="195" x2="585" y1="336.8398" y2="336.8398"/><text fill="#000000" font-family="sans-serif" font-size="13" lengthAdjust="spacingAndGlyphs" textLength="120" x="202" y="332.4082">Signed Transaction</text><polygon fill="#6959DB" points="72,362.1504,62,366.1504,72,370.1504,68,366.1504" style="stroke: #6959DB; stroke-width: 1.0;"/><line style="stroke: #6959DB; stroke-width: 1.0;" x1="66" x2="194" y1="366.1504" y2="366.1504"/><text fill="#000000" font-family="sans-serif" font-size="13" lengthAdjust="spacingAndGlyphs" textLength="110" x="78" y="361.7188">Transaction Hash</text><polygon fill="#6959DB" points="72,391.4609,62,395.4609,72,399.4609,68,395.4609" style="stroke: #6959DB; stroke-width: 1.0;"/><polygon fill="#6959DB" points="579,391.4609,589,395.4609,579,399.4609,583,395.4609" style="stroke: #6959DB; stroke-width: 1.0;"/><line style="stroke: #6959DB; stroke-width: 1.0;" x1="66" x2="585" y1="395.4609" y2="395.4609"/><text fill="#000000" font-family="sans-serif" font-size="13" lengthAdjust="spacingAndGlyphs" textLength="161" x="78" y="391.0293">Transaction Confirmation</text><!--
@startuml
skinparam roundcorner 10
skinparam BoxPadding 10
skinparam headerFontColor #6959DB
skinparam headerFontSize 18
skinparam sequence {
  ArrowColor #6959DB
  GroupBackgroundColor #6959DB
  GroupBorderColor #EDECFF
  GroupHeaderFontColor #ffffff
  BoxBorderColor #6959DB
  BoxBackgroundColor #EDECFF
  BoxPadding 10

  ParticipantBorderColor #6959DB
  ParticipantBackgroundColor #ffffff
  ParticipantPadding 10

  ActorBorderColor #6959DB
  ActorBackgroundColor #ffffff
  EntityBorderColor #6959DB
  EntityBackgroundColor #ffffff
  DatabaseBorderColor #6959DB
  DatabaseBackgroundColor #ffffff

  LifeLineBorderColor #878787
}

title Uport Ethereum Transaction Flow
participant ClientApp
participant UportMobile
actor Owner
participant FuelingService
database Ethereum

ClientApp -> UportMobile : ERC 76 Request
UportMobile -> Owner : Authorize Request?
Owner -> UportMobile: Allow/Disallow
UportMobile -> UportMobile: Sign Transaction
UportMobile -> FuelingService: Request gas for transaction
FuelingService -> Ethereum: Fueling Transaction
UportMobile -> Ethereum: Signed Transaction
UportMobile -> ClientApp: Transaction Hash
ClientApp <-> Ethereum: Transaction Confirmation

@enduml

PlantUML version 1.2017.19(Sun Nov 12 05:46:22 CST 2017)
(GPL source distribution)
Java Runtime: Java(TM) SE Runtime Environment
JVM: Java HotSpot(TM) 64-Bit Server VM
Java Version: 1.8.0_144-b01
Operating System: Mac OS X
OS Version: 10.13.1
Default Encoding: UTF-8
Language: en
Country: US
--></g></svg>